<?xml version="1.0" encoding="utf-8"?>
<!-- Generator: Adobe Illustrator 24.1.0, SVG Export Plug-In . SVG Version: 6.00 Build 0)  -->
<svg version="1.1" id="Layer_1" xmlns="http://www.w3.org/2000/svg" xmlns:xlink="http://www.w3.org/1999/xlink" x="0px" y="0px"
	 viewBox="0 0 485 88.4" style="enable-background:new 0 0 485 88.4;" xml:space="preserve">
<style type="text/css">
	.st0{fill:#497ED3;}
</style>
<g id="final">
	<path class="st0" d="M98,40.2L78,5.4c-1.5-2.5-4.1-4-7-4H30.9c-2.9,0-5.5,1.5-7,4l-20,34.8c-1.4,2.5-1.4,5.5,0,8L23.9,83
		c1.5,2.5,4.1,4,7,4H71c2.9,0,5.5-1.5,7-4l20-34.8C99.4,45.7,99.4,42.7,98,40.2z M94.4,42.7l-16.6,1.8L77,43.2l0.5-1.3l13.8-4.6
		l2.9,5.1C94.3,42.5,94.3,42.6,94.4,42.7L94.4,42.7z M85.7,60.9l-4.2,7.2L69.3,61l3.3-7.6l9.2,0.4L85.7,60.9z M83.1,53.9l6.4,0.3
		l-3.2,5.5L83.1,53.9z M41.4,82.7h-3l3.5-6L41.4,82.7z M34,56.7l1.4-0.5L20.1,67.8l-1.8-3L34,56.7z M17.8,63.7L17,62.3l9.8-3.3
		L17.8,63.7z M33.5,55.5l-17.1,5.8l-5-8.6l13.1-1.4l8.9,0.4l2.2,2.7L33.5,55.5z M14.9,29.7l0.4-0.7l1.3,1.6L14.9,29.7z M15.3,31.2
		l-1.6,0.5l0.6-1L15.3,31.2z M15.9,27.9l7.2-12.5l19-9.7h4.5l-1.1,15.8l-27.6,8.8L15.9,27.9z M74.5,8.2l2,3.4l-3.8,1.2L74.5,8.2z
		 M77.1,12.7l0.1,0.1L68.5,28l-1-1.8l4.7-11.9L77.1,12.7z M75.9,41.3l-2.8-4.9l7.2-3.7L76.7,41L75.9,41.3z M76.5,44.6L76.5,44.6
		L76.5,44.6L76.5,44.6z M55,51.5l-1.3-0.1l2.6-2.3h0.1L55,51.5z M55.7,52.7l-0.2,0.4h-0.1L55.7,52.7L55.7,52.7z M28.2,43.2l5.2-1.5
		l10.4,6v0.4L33,49.3L28.2,43.2z M32.5,50.5h-0.3H32.5L32.5,50.5z M66.2,32l-0.8,1.3l-1.2,0.9l0.7-1.9L66.2,32z M65.5,31l1.3-3.4
		l0.9,1.6L67,30.5L65.5,31z M66.3,34.1l2.9-2.2l1.5,2.6l-4.7,4.2l-3.4,1.8L66.3,34.1z M50.1,50l-1.6-0.9l0.8-0.4l6.5-0.7l-0.1,0.1
		L50.1,50z M53.5,50l-1.3,1.2l-0.8-0.5L53.5,50z M50.1,51.3h-0.3l0.2-0.1L50.1,51.3z M49,47.5h-0.5l13.1-10L60,41.8L49,47.5z
		 M62.7,41.7l-1.7,1.5l0.5-0.9L62.7,41.7z M59.5,46.2l7.3-6.6l5.4-2.8l2.7,4.8l-13.6,4.6l-1.8,0.2L59.5,46.2z M70.2,36.6l1.2-1.1
		l0.2,0.4L70.2,36.6z M72.2,34.7l7.4-6.7l3.1-0.9l-1.7,3.9l-8.6,4.4L72.2,34.7z M71.7,33.7l-1.4-2.6l0.7-0.5l6.2-1.8L71.7,33.7z
		 M62.7,38l0.7-1.8l0.6-0.4L62.7,38z M62.5,35.6L46.4,47.8L45,47l0.6-9l18-5.3L62.5,35.6z M47.3,49.7l1.3,0.8l-2,0.7l-1.9-0.1l0,0
		L47.3,49.7z M46.8,52.3l4,0.2l-6.6,5.9l0.4-5.4L46.8,52.3z M43.9,46.4l-8.9-5.2l9.5-2.8L43.9,46.4z M43.7,49.3v0.6L42.3,51
		l-8.1-0.4l-0.2-0.3L43.7,49.3z M42.4,52.3l0.2-0.1l0.9,0.1l0,0l-1.8,0.6L42.4,52.3z M43.8,64.6l2.1,2.6l-2.6,4.5L43.8,64.6z
		 M43.9,62.9l0.2-2.8l8.3-7.5l1.5,0.8l-7.3,12.6L43.9,62.9z M54.8,54.1l0.2,0.1l-6,15.1l-1.7-2.2L54.8,54.1z M52.2,47.2l7.1-3.7
		L58.7,45l-0.4,0.7l-1,0.9L52.2,47.2z M58.6,48.3l2.8-1l13.1-1.4l-2.7,6.3l-14.5-0.6L58.6,48.3z M66.5,45.7l8.9-3l0.3,0.6l-0.7,1.5
		L66.5,45.7z M82,31.7l4.7-2.5l4,7l-12.5,4.2L82,31.7z M82.7,30.1l1.5-3.4l0.8-0.2l1.1,1.9L82.7,30.1z M83.9,24.4l-0.6,1.3l-1.7,0.5
		l2.2-2L83.9,24.4z M79.1,27l-5.6,1.7l8.9-6.8l0.8,1.4L79.1,27z M70.4,29.5l-0.9,0.3l-0.3-0.6L77.9,14l3.9,6.8L70.4,29.5z
		 M66.7,24.9l-4.2-7.5l8.3-2.6L66.7,24.9z M66.1,26.3l-2,5.1l-18.4,5.5l1-14.4l14.7-4.7L66.1,26.3z M46.8,21.2l1-15.4h6.8l6.2,11
		L46.8,21.2z M45.5,22.8l-0.9,14.4l-11,3.2l-14.2-8.2l-0.7-0.9L45.5,22.8z M32,40.9l-4.6,1.3l-6-7.5L32,40.9z M31.7,49.4l-7.1,0.8
		l-15-0.7l-0.4-0.7l17.8-5.3L31.7,49.4z M17,51l-6.1,0.7l-0.5-1L17,51z M35.1,51.8l5.3,0.2l-3.6,1.9L35.1,51.8z M38.8,55l4.6-1.5
		L43,59.5l-1,0.9l-3.9-4.9L38.8,55z M42.9,61.2v0.3l-0.2-0.2L42.9,61.2z M43.2,74.4l3.6-6.2l1.8,2.3l-4.8,12.2h-1.1L43.2,74.4z
		 M49.4,71.5l8.9,11.1H45L49.4,71.5z M49.9,70.3l6.2-15.5l11.7,6.8L59,81.7L49.9,70.3z M56.5,53.7l0.4-0.9l14.5,0.6l-3.1,7.1
		L56.5,53.7z M73.1,52.3l2.8-6.5l1.2-0.1l4,7L73.1,52.3z M73.8,7.1l-2.5,6.3l-9.4,3l-6-10.6H71C72.1,5.8,73.1,6.2,73.8,7.1L73.8,7.1
		z M27.7,7.6c0.7-1.1,1.9-1.8,3.2-1.8h8.8l-15.5,7.9L27.7,7.6z M7.6,42.4l5.3-9.2l3.8-1.2l1.9,1.1l7.6,9.5L8.6,47.8l-1-1.8
		C7,44.9,6.9,43.5,7.6,42.4z M20.7,68.8l16.5-12.5l4,5L24.8,75.9L20.7,68.8z M27.7,80.8l-2.2-3.9l16.4-14.8l0.9,1.1L42,74l-5,8.6
		h-6.2C29.5,82.6,28.3,81.9,27.7,80.8L27.7,80.8z M74.2,80.8c-0.7,1.1-1.9,1.8-3.2,1.8H59.9l8.9-20.5l12.1,7L74.2,80.8z M94.3,46
		l-4.1,7l-7.8-0.3l-4.1-7.2l16.3-1.8C94.8,44.5,94.7,45.3,94.3,46L94.3,46z"/>
	<path class="st0" d="M158.3,63.2V49.7c0-0.8-0.6-1.4-1.4-1.5c0,0,0,0,0,0h-14.8c-0.8,0-1.4,0.6-1.4,1.4v13.6c0,0.8-0.6,1.4-1.4,1.4
		h-6.4c-0.8,0-1.4-0.6-1.4-1.4c0,0,0,0,0,0V25.3c0-0.8,0.6-1.4,1.4-1.4h6.4c0.8,0,1.4,0.6,1.4,1.4v13c0,0.8,0.6,1.4,1.4,1.4h14.8
		c0.8,0,1.4-0.6,1.4-1.4v-13c0-0.8,0.6-1.4,1.4-1.4h6.4c0.8,0,1.4,0.6,1.4,1.4v37.9c0,0.8-0.6,1.4-1.4,1.4h-6.4
		C159,64.6,158.3,64,158.3,63.2z"/>
	<path class="st0" d="M200.9,64.6h-6.4c-0.8,0-1.4-0.6-1.4-1.4V51.9c0-0.2-0.1-0.5-0.2-0.7L178.9,26c-0.4-0.7-0.1-1.6,0.6-1.9
		c0.2-0.1,0.5-0.2,0.7-0.2h6.4c0.5,0,1,0.3,1.2,0.7l7.6,13.8c0.3,0.6,0.6,1.1,0.9,1.7c0.3,0.7,1.2,1,1.9,0.7
		c0.3-0.1,0.5-0.4,0.7-0.7c0.3-0.6,0.6-1.1,0.9-1.7l7.5-13.8c0.2-0.5,0.7-0.7,1.2-0.7h6.5c0.8,0,1.4,0.6,1.4,1.4
		c0,0.2-0.1,0.5-0.2,0.7l-13.9,25.3c-0.1,0.2-0.2,0.4-0.2,0.7v11.3C202.3,64,201.6,64.6,200.9,64.6z"/>
	<path class="st0" d="M243.4,23.9c11.2,0,17.5,5.5,17.5,15.4c0,9.7-6.2,15.2-17.1,15.2h-5.2c-0.8,0-1.4,0.6-1.4,1.4v7.3
		c0,0.8-0.6,1.4-1.4,1.4h-6.4c-0.8,0-1.4-0.6-1.5-1.4c0,0,0,0,0-0.1V25.3c0-0.8,0.6-1.4,1.4-1.4L243.4,23.9z M243.7,46.4
		c5.2,0,8.1-2.6,8.1-7.2s-3.1-7.3-8.5-7.3h-4.7c-0.8,0-1.4,0.6-1.4,1.4V45c0,0.8,0.6,1.4,1.4,1.4l0,0L243.7,46.4z"/>
	<path class="st0" d="M273.2,63.2V25.3c0-0.8,0.6-1.4,1.4-1.4l0,0H301c0.8,0,1.4,0.6,1.4,1.4c0,0,0,0,0,0v5.6c0,0.8-0.6,1.4-1.4,1.4
		l0,0h-17.1c-0.8,0-1.4,0.6-1.4,1.4c0,0,0,0,0,0v5.2c0,0.8,0.6,1.4,1.4,1.4l0,0h14.2c0.8,0,1.4,0.6,1.4,1.4v5.3
		c0,0.8-0.6,1.4-1.4,1.4c0,0,0,0,0,0h-14.2c-0.8,0-1.4,0.6-1.4,1.4c0,0,0,0,0,0v4.9c0,0.8,0.6,1.4,1.4,1.4l0,0h17.6
		c0.8,0,1.4,0.6,1.4,1.4c0,0,0,0,0,0v5.5c0,0.8-0.6,1.4-1.4,1.4h-26.9C273.9,64.6,273.2,64,273.2,63.2z"/>
	<path class="st0" d="M319.1,63.3V25.2c0-0.7,0.6-1.3,1.3-1.3l0,0h1.9c0.7,0,1.3,0.6,1.3,1.3c0,0,0,0,0,0v33.7
		c0,0.7,0.6,1.3,1.3,1.3l0,0h18c0.7,0,1.3,0.6,1.3,1.3v0v1.7c0,0.7-0.6,1.3-1.3,1.3l0,0h-22.5C319.7,64.6,319.1,64,319.1,63.3z"/>
	<path class="st0" d="M358.2,64.6h-2.1c-0.7,0-1.3-0.6-1.3-1.3c0-0.2,0-0.4,0.1-0.5l16.4-38.1c0.2-0.5,0.7-0.8,1.2-0.8h4.3
		c0.5,0,1,0.3,1.2,0.8l16.4,38.1c0.3,0.7,0,1.4-0.7,1.7c-0.2,0.1-0.4,0.1-0.5,0.1h-2c-0.5,0-1-0.3-1.2-0.8l-4-9.2
		c-0.2-0.5-0.7-0.8-1.2-0.8h-20.3c-0.5,0-1,0.3-1.2,0.8l-3.9,9.2C359.2,64.3,358.7,64.6,358.2,64.6z M376.4,32l-0.4-1.1
		c-0.2-0.7-1-1-1.7-0.8c-0.4,0.1-0.7,0.4-0.8,0.8L373,32l-6.8,15.8c-0.3,0.7,0,1.4,0.7,1.7c0.2,0.1,0.4,0.1,0.5,0.1H382
		c0.7,0,1.3-0.6,1.3-1.3c0-0.2,0-0.4-0.1-0.5L376.4,32z"/>
	<path class="st0" d="M421.5,23.9c10.5,0,15.2,3.5,15.2,11.2c0.1,2.8-1.3,5.5-3.6,7c-0.6,0.4-0.8,1.2-0.4,1.8
		c0.1,0.2,0.4,0.4,0.6,0.5c3.8,1.5,6.2,5.1,6.1,9.2c0,7.7-5.5,11-16.8,11h-12.5c-0.7,0-1.3-0.6-1.3-1.3v0v-38c0-0.7,0.6-1.3,1.3-1.3
		l0,0L421.5,23.9z M413.2,40.2c0,0.7,0.6,1.3,1.3,1.3c0,0,0,0,0,0h9.2c5.6,0,8.5-2.2,8.5-6.1c0-4.9-3.3-7.2-10.8-7.2h-7
		c-0.7,0-1.3,0.6-1.3,1.3c0,0,0,0,0,0L413.2,40.2z M413.2,59c0,0.7,0.6,1.3,1.3,1.3c0,0,0,0,0,0h8c8.1,0,12.1-2,12.1-6.9
		s-3.8-7.7-10.9-7.7h-9.2c-0.7,0-1.3,0.6-1.3,1.3c0,0,0,0,0,0L413.2,59z"/>
	<path class="st0" d="M479.2,28.9c-0.3,0.7-1.1,1-1.7,0.7c0,0,0,0,0,0c-3.8-1.6-7.9-2.4-12-2.3c-4.9,0-7.9,2.9-7.9,5.9
		c0,4.9,3.1,5.9,11.4,8.6s12.6,5.4,12.6,12.2c0,8-6.1,11.2-13.1,11.2c-5.9-0.1-11.6-1.8-16.5-5.1c-0.6-0.4-0.7-1.1-0.4-1.7l0.6-1.2
		c0.4-0.6,1.2-0.9,1.8-0.5c0,0,0,0,0.1,0c4.3,2.6,9.2,4.1,14.2,4.3c5.5,0,8.6-2.3,8.6-6.4c0-4.7-2.4-6.3-11.5-9.2
		c-7.6-2.4-12.4-4.3-12.4-11.8c0-6.1,4.9-10.4,12.6-10.4c4.6,0,9.2,1,13.5,2.8c0.7,0.3,1,1,0.7,1.7L479.2,28.9z"/>
</g>
</svg>
